<svg width="10" height="10" viewBox="0 0 10 10" fill="none" xmlns="http://www.w3.org/2000/svg">
<path d="M4.66539 9.89193C4.76856 9.93471 4.88168 9.95832 5.00033 9.95832C5.11897 9.95832 5.23209 9.93471 5.33526 9.89193C5.43846 9.84923 5.53515 9.78593 5.61904 9.70204L9.70238 5.61871C10.0441 5.277 10.0441 4.72298 9.70238 4.38127C9.36067 4.03956 8.80665 4.03956 8.46494 4.38127L5.87533 6.97089V0.916656C5.87533 0.433407 5.48358 0.0416565 5.00033 0.0416565C4.51708 0.0416565 4.12533 0.433407 4.12533 0.916656V6.97089L1.53571 4.38127C1.194 4.03956 0.639983 4.03956 0.298274 4.38127C-0.0434351 4.72298 -0.0434351 5.277 0.298274 5.61871L4.38149 9.70193C4.46538 9.78582 4.56219 9.84923 4.66539 9.89193Z" fill="#98A0A7"/>
</svg>
