<svg viewBox="0 0 20 20" fill="none" xmlns="http://www.w3.org/2000/svg">
<path d="M13.3995 10.6507C14.2982 9.9436 14.9541 8.97401 15.2761 7.87678C15.5981 6.77954 15.5701 5.60924 15.196 4.52867C14.8218 3.44811 14.1202 2.51102 13.1887 1.84778C12.2572 1.18454 11.1422 0.828125 9.99866 0.828125C8.85516 0.828125 7.74009 1.18454 6.80859 1.84778C5.87709 2.51102 5.17547 3.44811 4.80135 4.52867C4.42723 5.60924 4.39921 6.77954 4.72119 7.87678C5.04316 8.97401 5.69913 9.9436 6.59782 10.6507C5.05789 11.2676 3.71425 12.2909 2.71014 13.6114C1.70603 14.9319 1.07909 16.5002 0.896154 18.149C0.882913 18.2694 0.893511 18.3912 0.927344 18.5075C0.961177 18.6237 1.01758 18.7322 1.09334 18.8267C1.24634 19.0175 1.46887 19.1398 1.71199 19.1665C1.9551 19.1932 2.19888 19.1223 2.3897 18.9693C2.58052 18.8163 2.70275 18.5938 2.72949 18.3507C2.93077 16.5588 3.7852 14.9038 5.12952 13.7021C6.47384 12.5003 8.21381 11.8359 10.017 11.8359C11.8202 11.8359 13.5601 12.5003 14.9045 13.7021C16.2488 14.9038 17.1032 16.5588 17.3045 18.3507C17.3294 18.5759 17.4369 18.7839 17.6062 18.9346C17.7755 19.0853 17.9945 19.1679 18.2212 19.1665H18.322C18.5623 19.1388 18.7819 19.0173 18.933 18.8285C19.0841 18.6396 19.1544 18.3987 19.1287 18.1582C18.9449 16.5047 18.3145 14.9324 17.3053 13.6098C16.296 12.2873 14.9458 11.2644 13.3995 10.6507ZM9.99866 9.99983C9.27346 9.99983 8.56454 9.78478 7.96156 9.38188C7.35858 8.97898 6.88862 8.40633 6.6111 7.73634C6.33357 7.06634 6.26096 6.32909 6.40244 5.61783C6.54392 4.90657 6.89314 4.25323 7.40593 3.74044C7.91872 3.22764 8.57206 2.87843 9.28332 2.73695C9.99459 2.59547 10.7318 2.66808 11.4018 2.9456C12.0718 3.22313 12.6445 3.69309 13.0474 4.29607C13.4503 4.89905 13.6653 5.60796 13.6653 6.33316C13.6653 7.30562 13.279 8.23825 12.5914 8.92589C11.9037 9.61352 10.9711 9.99983 9.99866 9.99983Z" fill="#98A0A7"/>
</svg>
